PathFileType	4	(X/Y/Z)	C:/Users/opensim2020/Desktop/walking_exp_matlab/subject01_walking10_straight_02.trc	
DataRate	CameraRate	NumFrames	NumMarkers	Units	OrigDataRate	OrigDataStartFrame	OrigNumFrames	
100.00	100.00	4	43	mm	100.00	2215	262	
Frame#	Time	LFHD			RFHD			LBHD			RBHD			C7			T10			CLAV			STRN			RBAK			LSHO			LUPA			LELB			LFRM			LWRA			LWRB			LFIN			RSHO			RUPA			RELB			RFRM			RWRA			RWRB			RFIN			LASI			RASI			LPSI			RPSI			LTHI			LKNE			LTIB			LANK			LHEE			LTOE			RTHI			RKNE			RTIB			RANK			RHEE			RTOE			*39			*40			*41			*42			
		X1	Y1	Z1	X2	Y2	Z2	X3	Y3	Z3	X4	Y4	Z4	X5	Y5	Z5	X6	Y6	Z6	X7	Y7	Z7	X8	Y8	Z8	X9	Y9	Z9	X10	Y10	Z10	X11	Y11	Z11	X12	Y12	Z12	X13	Y13	Z13	X14	Y14	Z14	X15	Y15	Z15	X16	Y16	Z16	X17	Y17	Z17	X18	Y18	Z18	X19	Y19	Z19	X20	Y20	Z20	X21	Y21	Z21	X22	Y22	Z22	X23	Y23	Z23	X24	Y24	Z24	X25	Y25	Z25	X26	Y26	Z26	X27	Y27	Z27	X28	Y28	Z28	X29	Y29	Z29	X30	Y30	Z30	X31	Y31	Z31	X32	Y32	Z32	X33	Y33	Z33	X34	Y34	Z34	X35	Y35	Z35	X36	Y36	Z36	X37	Y37	Z37	X38	Y38	Z38	X39	Y39	Z39	X40	Y40	Z40	X41	Y41	Z41	X42	Y42	Z42	X43	Y43	Z43	

197	1.960	-1025.28796	-491.07190	1663.61584	-1130.31323	-536.09680	1664.18701	-1069.39697	-374.52164	1639.62085	-1180.60291	-420.60349	1640.70825	-1099.95667	-319.77054	1438.37305	-1099.04602	-280.76416	1143.76135	-1094.60242	-460.43835	1365.66125	-1086.60144	-502.69687	1212.17200	-1173.79431	-263.34622	1240.75537	-935.27313	-396.28305	1400.75232	-849.96954	-364.12177	1216.56055	-851.97095	-351.52249	1065.39978	-826.30194	-392.64722	959.20557	-842.49896	-477.09854	848.46899	-820.64673	-421.66739	840.23535	-808.92529	-473.87274	774.14606	-1247.64136	-401.06519	1391.58862	-1348.95801	-352.04031	1188.59192	-1352.50342	-360.33377	1063.68616	-1379.54077	-404.79074	950.21295	-1355.09998	-500.79666	846.54224	-1395.28955	-458.87262	840.84039	-1391.48682	-505.83481	768.85254	-987.48273	-454.10583	937.53259	-1204.97827	-451.47943	933.34357	-1034.31726	-267.38330	947.75854	-1179.32043	-265.29233	951.20251	-916.61273	-505.88373	622.61029	-930.79755	-526.54449	489.92209	-920.91461	-444.74512	320.76910	-967.92767	-379.35400	110.68961	-1027.56091	-338.18628	82.53972	-943.23358	-507.80087	52.18044	-1239.23730	-385.67957	599.71918	-1206.16956	-390.66110	441.37869	-1202.64771	-330.34250	275.25668	-1139.16016	-298.65451	75.09154	-1086.42944	-250.02161	41.20943	-1138.38599	-439.10666	33.68668	-1110.55701	-524.64911	1699.77710	-3102.19897	1973.06885	1024.23132	-3138.73193	2013.04175	1022.17517			 
198	1.970	-1024.93140	-497.13184	1663.14795	-1130.01746	-542.81714	1663.87256	-1069.56116	-381.13660	1639.39160	-1180.64954	-427.50345	1640.48657	-1100.24414	-326.25092	1438.24634	-1099.36499	-286.82382	1143.78455	-1094.78918	-466.98975	1365.47314	-1086.90857	-508.79684	1211.76489	-1174.34045	-269.58115	1240.81763	-935.54474	-402.57040	1400.49963	-850.34351	-369.47183	1216.35901	-852.44446	-356.42960	1065.19971	-826.68896	-396.76804	958.81866	-842.70483	-480.49225	847.53522	-820.72345	-425.07462	839.67145	-809.13525	-476.74246	773.27338	-1247.89539	-407.74567	1391.38171	-1349.79382	-359.49542	1188.52600	-1353.12012	-367.98453	1063.48584	-1379.98096	-413.45877	950.45624	-1355.06604	-510.14185	847.43677	-1395.46680	-468.49725	841.53143	-1391.47144	-515.99603	769.90338	-987.76941	-460.07071	937.56628	-1205.32178	-456.85376	932.97931	-1034.12708	-273.28860	947.68683	-1179.09509	-270.70114	950.92963	-916.55432	-512.29498	622.90161	-931.60645	-534.25067	490.38794	-921.22491	-459.15396	318.57455	-967.89575	-402.60208	105.37160	-1027.25879	-361.95288	76.01926	-944.65570	-533.53973	51.89514	-1239.29565	-389.29013	599.43390	-1206.01904	-392.94473	441.11453	-1202.56213	-332.04395	275.21277	-1139.07642	-298.87433	75.32014	-1085.88782	-250.16991	41.31040	-1138.34131	-439.21616	33.61422	-1110.29492	-531.43134	1699.48120	-3102.10742	1973.13354	1024.22925						 
199	1.980	-1025.09058	-503.11356	1662.66052	-1129.90979	-549.65607	1663.56897	-1069.64771	-387.73206	1639.08118	-1180.61755	-434.29749	1640.26147	-1100.97229	-332.53149	1438.27185	-1099.64832	-292.75815	1143.71533	-1094.99023	-473.22098	1364.97266	-1087.22339	-514.89117	1211.29517	-1174.82178	-275.82022	1240.88660	-935.79352	-408.87918	1400.15991	-850.66760	-374.85239	1216.04773	-852.88922	-361.10089	1065.13123	-827.01434	-400.96967	958.47510	-842.85815	-484.04834	846.67242	-821.25250	-428.46451	839.15833	-809.14026	-479.77942	772.58221	-1247.98755	-414.45053	1391.12976	-1350.14551	-366.87827	1188.28894	-1353.68311	-375.58261	1063.24072	-1380.35022	-422.05969	950.55457	-1354.90894	-519.37677	848.26917	-1395.63611	-478.04059	842.04126	-1391.37415	-526.10016	770.79413	-988.04395	-466.03006	937.55115	-1205.70264	-462.40494	932.47668	-1034.02319	-279.17010	947.61316	-1178.88049	-276.25314	950.61188	-916.37903	-518.58221	623.05048	-932.40631	-541.66254	490.58109	-921.61060	-473.10092	316.44260	-967.92645	-425.36108	100.79031	-1027.25549	-385.94992	70.00769	-946.05011	-558.72321	51.82662	-1239.12366	-392.97253	599.10748	-1206.13269	-395.83932	440.65002	-1202.75635	-334.28839	275.34311	-1138.97070	-299.06760	75.51988	-1085.80359	-250.27426	41.75639	-1138.40491	-439.21439	33.55325	-1110.07312	-538.12421	1699.12012	-3102.03271	1973.17102	1024.11157	-3138.56592	2013.07947	1022.38940			 
200	1.990	-1024.58081	-510.06140	1662.27393	-1129.41577	-556.24438	1663.08838	-1069.70862	-394.29941	1638.68738	-1180.55774	-441.11783	1639.90588	-1101.28394	-339.01099	1438.20142	-1099.79724	-298.74011	1143.60107	-1095.07251	-479.56335	1364.55188	-1087.43713	-521.00208	1210.79797	-1175.24414	-281.97961	1240.89282	-935.84882	-415.20297	1399.76514	-850.91028	-380.27884	1215.72925	-853.13403	-365.63193	1064.91077	-827.31299	-405.27057	957.99091	-843.01727	-487.68951	845.72064	-821.15863	-432.18445	838.45923	-809.25549	-482.88635	771.73212	-1248.06860	-421.08636	1390.81323	-1350.86182	-374.13684	1188.20264	-1354.16272	-383.14185	1063.01746	-1380.58630	-430.46951	950.41327	-1354.75488	-528.48981	849.10040	-1395.51868	-487.37473	842.46918	-1391.22778	-536.07800	771.66937	-988.20093	-471.97931	937.54614	-1205.93787	-467.88873	932.06189	-1033.90735	-285.09958	947.43958	-1178.62000	-281.96771	950.25537	-916.31030	-524.71088	622.99762	-933.08990	-548.96710	490.71204	-922.02411	-486.85846	314.44226	-968.17474	-448.25555	96.80417	-1027.43420	-409.38220	64.79177	-947.53217	-583.50128	52.59109	-1239.04761	-396.68875	598.86121	-1206.06995	-398.53076	440.32794	-1202.46228	-335.21637	275.38095	-1138.80432	-299.28683	75.78175	-1085.67163	-250.40479	42.16291	-1138.41626	-439.41907	33.69065	-1109.70483	-544.80786	1698.71082	-3102.16333	1973.19434	1024.16968						 
